# xmcd
#
# Track frame offsets:
#	150
#	22446
#	45519
#	65489
#	90243
#	112991
#	139443
#	158053
#	175523
#	196786
#
# Disc length: 2901 seconds
#
# Revision: 1
# Processed by: cddbd v1.5.2PL0 Copyright (c) Steve Scherf et al.
# Submitted via: audiograbber 1.83.01
#
DISCID=7d0b530a
DTITLE=Philip Huy and Ngoc Huong - Nu hon duoi mua
DYEAR=1996
DGENRE=Pop
TTITLE0=Philip Huy - Nu hon duoi mua
TTITLE1=Ngoc Huong - Tinh nong
TTITLE2=Philip Huy - Biet dau thuo nao
TTITLE3=Ngoc Huong - Nu cuoi xa vang
TTITLE4=Philip Huy - Lan dau lan cuoi
TTITLE5=Ngoc Huong - Xin mot ngay mai co nhau
TTITLE6=Philip Huy - Duong xa uot mua
TTITLE7=Ngoc Huong - Mua thu cho em
TTITLE8=Philip Huy - Bai cuoi cho nguoi tinh
TTITLE9=Ngoc Lan - Theo la vang bay
EXTD=
EXTT0=
EXTT1=
EXTT2=
EXTT3=
EXTT4=
EXTT5=
EXTT6=
EXTT7=
EXTT8=
EXTT9=
PLAYORDER=
